<svg width="1440" height="1024" viewBox="0 0 1440 1024" fill="none" xmlns="http://www.w3.org/2000/svg">
<g opacity="0.75">
<line x1="0.746781" y1="-0.00097653" x2="0.746728" y2="1200.25" stroke="#F3F4F7" stroke-opacity="0.7" stroke-width="1.48966"/>
<line x1="60.1257" y1="-0.00097653" x2="60.1256" y2="1200.25" stroke="#F3F4F7" stroke-opacity="0.7" stroke-width="1.48966"/>
<line x1="119.506" y1="-0.00097653" x2="119.506" y2="1200.25" stroke="#F3F4F7" stroke-opacity="0.7" stroke-width="1.48966"/>
<line x1="178.884" y1="-0.00097653" x2="178.884" y2="1200.25" stroke="#F3F4F7" stroke-opacity="0.7" stroke-width="1.48966"/>
<line x1="238.264" y1="-0.00097653" x2="238.264" y2="1200.25" stroke="#F3F4F7" stroke-opacity="0.7" stroke-width="1.48966"/>
<line x1="297.643" y1="-0.00097653" x2="297.643" y2="1200.25" stroke="#F3F4F7" stroke-opacity="0.7" stroke-width="1.48966"/>
<line x1="357.023" y1="-0.00097653" x2="357.023" y2="1200.25" stroke="#F3F4F7" stroke-opacity="0.7" stroke-width="1.48966"/>
<line x1="416.402" y1="-0.00097653" x2="416.402" y2="1200.25" stroke="#F3F4F7" stroke-opacity="0.7" stroke-width="1.48966"/>
<line x1="475.781" y1="-0.00097653" x2="475.781" y2="1200.25" stroke="#F3F4F7" stroke-opacity="0.7" stroke-width="1.48966"/>
<line x1="535.161" y1="-0.00097653" x2="535.161" y2="1200.25" stroke="#F3F4F7" stroke-opacity="0.7" stroke-width="1.48966"/>
<line x1="594.54" y1="-0.00097653" x2="594.54" y2="1200.25" stroke="#F3F4F7" stroke-opacity="0.7" stroke-width="1.48966"/>
<line x1="653.92" y1="-0.00097653" x2="653.92" y2="1200.25" stroke="#F3F4F7" stroke-opacity="0.7" stroke-width="1.48966"/>
<line x1="713.299" y1="-0.00097653" x2="713.298" y2="1200.25" stroke="#F3F4F7" stroke-opacity="0.7" stroke-width="1.48966"/>
<line x1="772.678" y1="-0.00097653" x2="772.678" y2="1200.25" stroke="#F3F4F7" stroke-opacity="0.7" stroke-width="1.48966"/>
<line x1="832.057" y1="-0.00097653" x2="832.057" y2="1200.25" stroke="#F3F4F7" stroke-opacity="0.7" stroke-width="1.48966"/>
<line x1="891.436" y1="-0.00097653" x2="891.436" y2="1200.25" stroke="#F3F4F7" stroke-opacity="0.7" stroke-width="1.48966"/>
<line x1="950.816" y1="-0.00097653" x2="950.816" y2="1200.25" stroke="#F3F4F7" stroke-opacity="0.7" stroke-width="1.48966"/>
<line x1="1010.2" y1="-0.00097653" x2="1010.19" y2="1200.25" stroke="#F3F4F7" stroke-opacity="0.7" stroke-width="1.48966"/>
<line x1="1069.57" y1="-0.00097653" x2="1069.57" y2="1200.25" stroke="#F3F4F7" stroke-opacity="0.7" stroke-width="1.48966"/>
<line x1="1128.95" y1="-0.00097653" x2="1128.95" y2="1200.25" stroke="#F3F4F7" stroke-opacity="0.7" stroke-width="1.48966"/>
<line x1="1188.33" y1="-0.00097653" x2="1188.33" y2="1200.25" stroke="#F3F4F7" stroke-opacity="0.7" stroke-width="1.48966"/>
<line x1="1247.71" y1="-0.00097653" x2="1247.71" y2="1200.25" stroke="#F3F4F7" stroke-opacity="0.7" stroke-width="1.48966"/>
<line x1="1307.09" y1="-0.00097653" x2="1307.09" y2="1200.25" stroke="#F3F4F7" stroke-opacity="0.7" stroke-width="1.48966"/>
<line x1="1366.47" y1="-0.00097653" x2="1366.47" y2="1200.25" stroke="#F3F4F7" stroke-opacity="0.7" stroke-width="1.48966"/>
<line x1="1425.85" y1="-0.00097653" x2="1425.85" y2="1200.25" stroke="#F3F4F7" stroke-opacity="0.7" stroke-width="1.48966"/>
<line x1="2137.66" y1="0.744126" x2="0.00122064" y2="0.743939" stroke="#F3F4F7" stroke-opacity="0.7" stroke-width="1.48966"/>
<line x1="2137.66" y1="60.1256" x2="0.00122064" y2="60.1254" stroke="#F3F4F7" stroke-opacity="0.7" stroke-width="1.48966"/>
<line x1="2137.66" y1="119.507" x2="0.00122064" y2="119.507" stroke="#F3F4F7" stroke-opacity="0.7" stroke-width="1.48966"/>
<line x1="2137.66" y1="178.889" x2="0.00122064" y2="178.888" stroke="#F3F4F7" stroke-opacity="0.7" stroke-width="1.48966"/>
<line x1="2137.66" y1="238.27" x2="0.00122064" y2="238.27" stroke="#F3F4F7" stroke-opacity="0.7" stroke-width="1.48966"/>
<line x1="2137.66" y1="297.651" x2="0.00122064" y2="297.651" stroke="#F3F4F7" stroke-opacity="0.7" stroke-width="1.48966"/>
<line x1="2137.66" y1="357.033" x2="0.00122064" y2="357.033" stroke="#F3F4F7" stroke-opacity="0.7" stroke-width="1.48966"/>
<line x1="2137.66" y1="416.414" x2="0.00122064" y2="416.414" stroke="#F3F4F7" stroke-opacity="0.7" stroke-width="1.48966"/>
<line x1="2137.66" y1="475.796" x2="0.00122064" y2="475.796" stroke="#F3F4F7" stroke-opacity="0.7" stroke-width="1.48966"/>
<line x1="2137.66" y1="535.177" x2="0.00122064" y2="535.177" stroke="#F3F4F7" stroke-opacity="0.7" stroke-width="1.48966"/>
<line x1="2137.66" y1="594.559" x2="0.00122064" y2="594.559" stroke="#F3F4F7" stroke-opacity="0.7" stroke-width="1.48966"/>
<line x1="2137.66" y1="653.94" x2="0.00122064" y2="653.94" stroke="#F3F4F7" stroke-opacity="0.7" stroke-width="1.48966"/>
<line x1="2137.66" y1="713.322" x2="0.00122064" y2="713.322" stroke="#F3F4F7" stroke-opacity="0.7" stroke-width="1.48966"/>
<line x1="2137.66" y1="772.703" x2="0.00122064" y2="772.703" stroke="#F3F4F7" stroke-opacity="0.7" stroke-width="1.48966"/>
<line x1="2137.66" y1="832.085" x2="0.00122064" y2="832.084" stroke="#F3F4F7" stroke-opacity="0.7" stroke-width="1.48966"/>
<line x1="2137.66" y1="891.466" x2="0.00122064" y2="891.466" stroke="#F3F4F7" stroke-opacity="0.7" stroke-width="1.48966"/>
<line x1="2137.66" y1="950.848" x2="0.00122064" y2="950.847" stroke="#F3F4F7" stroke-opacity="0.7" stroke-width="1.48966"/>
<line x1="2137.66" y1="1010.23" x2="0.00122064" y2="1010.23" stroke="#F3F4F7" stroke-opacity="0.7" stroke-width="1.48966"/>
<rect x="178.14" y="60.1234" width="59.0082" height="59.0103" fill="#F6F7F9" fill-opacity="0.6"/>
<rect x="356.277" y="297.278" width="59.0082" height="59.0103" fill="#F6F7F9" fill-opacity="0.6"/>
<rect x="534.415" y="416.412" width="59.0082" height="59.0103" fill="#F6F7F9" fill-opacity="0.6"/>
<rect x="178.14" y="653.567" width="59.0082" height="59.0103" fill="#F6F7F9" fill-opacity="0.6"/>
<rect x="356.277" y="772.701" width="59.0082" height="59.0103" fill="#F6F7F9" fill-opacity="0.6"/>
<rect x="119.132" y="949.732" width="59.0082" height="59.0103" fill="#F6F7F9" fill-opacity="0.6"/>
<rect x="534.415" y="653.567" width="59.0082" height="59.0103" fill="#F6F7F9" fill-opacity="0.6"/>
</g>
</svg>
