<svg width="4500" height="833" viewBox="0 0 4500 833" fill="none" xmlns="http://www.w3.org/2000/svg">
<mask id="path-1-outside-1_546_3215" maskUnits="userSpaceOnUse" x="135.234" y="89.4922" width="4229" height="654" fill="black">
<rect fill="white" x="135.234" y="89.4922" width="4229" height="654"/>
<path d="M471.612 610.934H396.132V536.963L393.867 516.584V372.416C393.867 344.237 387.074 325.115 373.488 315.051C360.405 304.987 339.018 299.955 309.329 299.955C279.641 299.955 258.254 305.239 245.171 315.806C232.591 326.373 226.301 343.985 226.301 368.642V379.964H147.802V372.416C147.802 344.237 154.595 319.328 168.181 297.691C182.271 276.053 201.644 259.196 226.301 247.119C251.461 234.539 280.647 228.249 313.858 228.249C349.082 228.249 378.268 234.79 401.415 247.874C424.563 260.957 441.923 279.072 453.497 302.22C465.574 324.864 471.612 351.785 471.612 382.983V610.934ZM256.493 618.482C222.779 618.482 194.348 609.928 171.201 592.819C148.556 575.207 137.234 550.298 137.234 518.093C137.234 496.959 142.015 479.347 151.576 465.257C161.64 451.167 175.981 439.594 194.599 430.536C213.218 421.478 235.862 415.188 262.532 411.666L401.415 392.041V449.406L274.609 468.276C252.971 471.295 237.875 475.824 229.32 481.863C220.766 487.901 216.489 497.965 216.489 512.055C216.489 526.648 221.521 537.215 231.585 543.757C242.152 550.298 259.261 553.569 282.911 553.569C301.027 553.569 318.387 550.801 334.993 545.266C352.102 539.228 366.191 529.415 377.262 515.829C388.332 501.739 393.867 482.114 393.867 456.954L404.435 552.814L392.358 552.059C385.313 563.633 375.501 574.452 362.921 584.516C350.844 594.58 335.999 602.883 318.387 609.424C300.775 615.463 280.144 618.482 256.493 618.482Z"/>
<path d="M595.712 188.244H514.949L514.194 105.216H595.712V188.244ZM596.467 610.934H514.949V233.532H596.467V610.934Z"/>
<path fill-rule="evenodd" clip-rule="evenodd" d="M820.613 239.251C869.14 239.251 915.685 258.522 949.999 292.84C984.313 327.154 1003.59 373.699 1003.59 422.226V422.244C1003.59 470.771 984.317 517.316 949.999 551.63C915.685 585.944 869.14 605.22 820.613 605.22H820.595C772.068 605.22 725.523 585.944 691.209 551.63C656.895 517.312 637.623 470.768 637.623 422.241V422.223C637.623 373.696 656.895 327.151 691.213 292.837C725.527 258.522 772.072 239.251 820.599 239.251H820.617H820.613Z"/>
<path d="M1399.96 610.934H1318.44V392.796C1318.44 359.585 1312.15 335.682 1299.57 321.09C1286.99 305.994 1263.34 298.446 1228.62 298.446C1206.48 298.446 1188.36 301.716 1174.27 308.258C1160.18 314.296 1149.61 324.36 1142.57 338.45C1135.52 352.037 1132 370.655 1132 394.306H1117.66L1110.87 305.994H1128.98C1134.52 292.407 1142.82 279.827 1153.89 268.253C1164.96 256.68 1179.05 247.119 1196.16 239.571C1213.77 232.023 1234.65 228.249 1258.81 228.249C1291.52 228.249 1318.19 234.539 1338.82 247.119C1359.45 259.699 1374.8 277.059 1384.86 299.2C1394.92 321.341 1399.96 346.753 1399.96 375.435V610.934ZM1132 610.934H1050.48V235.797H1125.21V348.263L1132 352.037V610.934Z"/>
<path d="M1687.09 669.809H1415.36V610.934H1687.09V669.809Z"/>
<path d="M1909.67 618.482C1875.95 618.482 1848.53 611.94 1827.39 598.857C1806.76 585.271 1792.42 569.923 1784.37 552.814H1763.99L1767.76 456.954H1782.1C1782.1 477.586 1785.88 494.694 1793.43 508.281C1801.48 521.867 1813.3 532.183 1828.9 539.228C1844.5 545.769 1863.12 549.04 1884.76 549.04C1902.37 549.04 1917.72 546.776 1930.8 542.247C1943.88 537.718 1954.45 530.673 1962.5 521.112C1971.06 511.552 1977.1 498.72 1980.62 482.618C1984.64 466.012 1986.66 446.135 1986.66 422.988C1986.66 399.841 1984.64 380.467 1980.62 364.868C1977.1 348.766 1971.06 335.682 1962.5 325.618C1954.45 315.554 1943.88 308.51 1930.8 304.484C1918.22 299.955 1902.87 297.691 1884.76 297.691C1863.12 297.691 1844.5 301.213 1828.9 308.258C1813.3 314.8 1801.48 324.864 1793.43 338.45C1785.88 351.533 1782.1 368.642 1782.1 389.777H1767.76L1763.99 297.691H1779.09C1788.14 276.053 1802.99 259.196 1823.62 247.119C1844.75 234.539 1871.67 228.249 1904.38 228.249C1957.22 228.249 1997.73 245.861 2025.91 281.085C2054.09 316.309 2068.18 363.61 2068.18 422.988C2068.18 482.366 2054.59 529.919 2027.42 565.646C2000.24 600.87 1960.99 618.482 1909.67 618.482ZM1782.1 741.515H1701.34V235.797H1775.31V324.864L1782.1 334.676V741.515Z"/>
<path d="M2184.69 610.934H2103.17V233.532H2177.89V338.45L2184.69 342.224V610.934ZM2184.69 366.378H2165.82V293.162H2181.67C2189.22 275.55 2201.54 260.454 2218.65 247.874C2236.26 234.79 2258.91 228.249 2286.58 228.249C2313.25 228.249 2334.39 234.036 2349.99 245.609C2366.09 257.183 2377.66 272.531 2384.71 291.652C2391.75 310.774 2395.28 332.16 2395.28 355.811V380.719H2313.76V365.623C2313.76 340.463 2309.48 322.851 2300.93 312.787C2292.37 302.723 2276.27 297.691 2252.62 297.691C2227.96 297.691 2210.35 302.974 2199.78 313.542C2189.72 323.606 2184.69 341.218 2184.69 366.378Z"/>
<path d="M2603.54 222.096L2409.12 416.515L2603.54 610.934L2797.96 416.515L2603.54 222.096ZM2556.68 463.381C2524.48 431.183 2524.48 401.848 2556.68 369.649C2588.87 337.449 2618.21 337.451 2650.41 369.649C2682.61 401.847 2682.61 431.181 2650.41 463.381C2618.21 495.58 2588.88 495.58 2556.68 463.381Z"/>
<path d="M2995.05 610.934C2953.79 610.934 2922.09 602.128 2899.95 584.516C2878.31 566.904 2867.49 537.215 2867.49 495.449V244.1L2886.36 142.956H2949.01V491.675C2949.01 511.3 2953.79 523.88 2963.35 529.415C2973.42 534.447 2991.28 536.963 3016.94 536.963H3062.23V604.141C3054.68 606.154 3044.87 607.915 3032.79 609.424C3020.72 610.431 3008.14 610.934 2995.05 610.934ZM3062.23 303.729H2804.84V235.797H3062.23V303.729Z"/>
<path fill-rule="evenodd" clip-rule="evenodd" d="M3261.14 239.251C3309.67 239.251 3356.22 258.522 3390.53 292.84C3424.84 327.154 3444.12 373.699 3444.12 422.226V422.244C3444.12 470.771 3424.85 517.316 3390.53 551.63C3356.22 585.944 3309.67 605.22 3261.14 605.22H3261.13C3212.6 605.22 3166.05 585.944 3131.74 551.63C3097.43 517.312 3078.15 470.768 3078.15 422.241V422.222C3078.15 373.695 3097.43 327.151 3131.74 292.837C3166.06 258.522 3212.6 239.251 3261.13 239.251H3261.15H3261.14Z"/>
<path d="M3657.02 619.237C3617.77 619.237 3584.56 610.934 3557.39 594.328C3530.21 577.723 3509.33 554.827 3494.74 525.641C3480.65 496.456 3473.6 462.489 3473.6 423.743C3473.6 384.996 3480.9 351.03 3495.49 321.844C3510.59 292.155 3531.97 269.26 3559.65 253.157C3587.33 236.552 3620.79 228.249 3660.04 228.249C3693.25 228.249 3722.44 234.539 3747.6 247.119C3772.76 259.699 3792.13 277.311 3805.72 299.955C3819.8 322.599 3826.85 349.017 3826.85 379.209V386.003H3746.09V381.474C3746.09 353.798 3738.54 333.67 3723.44 321.09C3708.85 308.006 3685.95 301.465 3654.75 301.465C3618.52 301.465 3592.61 311.78 3577.01 332.412C3561.91 352.54 3554.37 382.732 3554.37 422.988C3554.37 463.747 3561.91 494.443 3577.01 515.074C3592.61 535.202 3618.52 545.266 3654.75 545.266C3685.95 545.266 3708.85 538.976 3723.44 526.396C3738.54 513.313 3746.09 493.185 3746.09 466.012V461.483H3826.85V468.276C3826.85 497.462 3819.8 523.629 3805.72 546.776C3791.63 569.42 3771.75 587.284 3746.09 600.367C3720.93 612.947 3691.24 619.237 3657.02 619.237Z"/>
<path d="M4046.82 222.096L3852.4 416.515L4046.82 610.934L4241.24 416.515L4046.82 222.096ZM3999.95 463.381C3967.75 431.183 3967.75 401.848 3999.95 369.649C4032.15 337.449 4061.48 337.451 4093.68 369.649C4125.88 401.847 4125.88 431.181 4093.68 463.381C4061.49 495.58 4032.15 495.58 3999.95 463.381Z"/>
<path d="M4362.76 597.21H4281.24V91.4922H4362.76V597.21Z"/>
</mask>
<path d="M471.612 610.934H396.132V536.963L393.867 516.584V372.416C393.867 344.237 387.074 325.115 373.488 315.051C360.405 304.987 339.018 299.955 309.329 299.955C279.641 299.955 258.254 305.239 245.171 315.806C232.591 326.373 226.301 343.985 226.301 368.642V379.964H147.802V372.416C147.802 344.237 154.595 319.328 168.181 297.691C182.271 276.053 201.644 259.196 226.301 247.119C251.461 234.539 280.647 228.249 313.858 228.249C349.082 228.249 378.268 234.79 401.415 247.874C424.563 260.957 441.923 279.072 453.497 302.22C465.574 324.864 471.612 351.785 471.612 382.983V610.934ZM256.493 618.482C222.779 618.482 194.348 609.928 171.201 592.819C148.556 575.207 137.234 550.298 137.234 518.093C137.234 496.959 142.015 479.347 151.576 465.257C161.64 451.167 175.981 439.594 194.599 430.536C213.218 421.478 235.862 415.188 262.532 411.666L401.415 392.041V449.406L274.609 468.276C252.971 471.295 237.875 475.824 229.32 481.863C220.766 487.901 216.489 497.965 216.489 512.055C216.489 526.648 221.521 537.215 231.585 543.757C242.152 550.298 259.261 553.569 282.911 553.569C301.027 553.569 318.387 550.801 334.993 545.266C352.102 539.228 366.191 529.415 377.262 515.829C388.332 501.739 393.867 482.114 393.867 456.954L404.435 552.814L392.358 552.059C385.313 563.633 375.501 574.452 362.921 584.516C350.844 594.58 335.999 602.883 318.387 609.424C300.775 615.463 280.144 618.482 256.493 618.482Z" fill="#1F1F1F"/>
<path d="M595.712 188.244H514.949L514.194 105.216H595.712V188.244ZM596.467 610.934H514.949V233.532H596.467V610.934Z" fill="#1F1F1F"/>
<path fill-rule="evenodd" clip-rule="evenodd" d="M820.613 239.251C869.14 239.251 915.685 258.522 949.999 292.84C984.313 327.154 1003.59 373.699 1003.59 422.226V422.244C1003.59 470.771 984.317 517.316 949.999 551.63C915.685 585.944 869.14 605.22 820.613 605.22H820.595C772.068 605.22 725.523 585.944 691.209 551.63C656.895 517.312 637.623 470.768 637.623 422.241V422.223C637.623 373.696 656.895 327.151 691.213 292.837C725.527 258.522 772.072 239.251 820.599 239.251H820.617H820.613Z" fill="#FC9E4D"/>
<path d="M1399.96 610.934H1318.44V392.796C1318.44 359.585 1312.15 335.682 1299.57 321.09C1286.99 305.994 1263.34 298.446 1228.62 298.446C1206.48 298.446 1188.36 301.716 1174.27 308.258C1160.18 314.296 1149.61 324.36 1142.57 338.45C1135.52 352.037 1132 370.655 1132 394.306H1117.66L1110.87 305.994H1128.98C1134.52 292.407 1142.82 279.827 1153.89 268.253C1164.96 256.68 1179.05 247.119 1196.16 239.571C1213.77 232.023 1234.65 228.249 1258.81 228.249C1291.52 228.249 1318.19 234.539 1338.82 247.119C1359.45 259.699 1374.8 277.059 1384.86 299.2C1394.92 321.341 1399.96 346.753 1399.96 375.435V610.934ZM1132 610.934H1050.48V235.797H1125.21V348.263L1132 352.037V610.934Z" fill="#1F1F1F"/>
<path d="M1687.09 669.809H1415.36V610.934H1687.09V669.809Z" fill="#1F1F1F"/>
<path d="M1909.67 618.482C1875.95 618.482 1848.53 611.94 1827.39 598.857C1806.76 585.271 1792.42 569.923 1784.37 552.814H1763.99L1767.76 456.954H1782.1C1782.1 477.586 1785.88 494.694 1793.43 508.281C1801.48 521.867 1813.3 532.183 1828.9 539.228C1844.5 545.769 1863.12 549.04 1884.76 549.04C1902.37 549.04 1917.72 546.776 1930.8 542.247C1943.88 537.718 1954.45 530.673 1962.5 521.112C1971.06 511.552 1977.1 498.72 1980.62 482.618C1984.64 466.012 1986.66 446.135 1986.66 422.988C1986.66 399.841 1984.64 380.467 1980.62 364.868C1977.1 348.766 1971.06 335.682 1962.5 325.618C1954.45 315.554 1943.88 308.51 1930.8 304.484C1918.22 299.955 1902.87 297.691 1884.76 297.691C1863.12 297.691 1844.5 301.213 1828.9 308.258C1813.3 314.8 1801.48 324.864 1793.43 338.45C1785.88 351.533 1782.1 368.642 1782.1 389.777H1767.76L1763.99 297.691H1779.09C1788.14 276.053 1802.99 259.196 1823.62 247.119C1844.75 234.539 1871.67 228.249 1904.38 228.249C1957.22 228.249 1997.73 245.861 2025.91 281.085C2054.09 316.309 2068.18 363.61 2068.18 422.988C2068.18 482.366 2054.59 529.919 2027.42 565.646C2000.24 600.87 1960.99 618.482 1909.67 618.482ZM1782.1 741.515H1701.34V235.797H1775.31V324.864L1782.1 334.676V741.515Z" fill="#1F1F1F"/>
<path d="M2184.69 610.934H2103.17V233.532H2177.89V338.45L2184.69 342.224V610.934ZM2184.69 366.378H2165.82V293.162H2181.67C2189.22 275.55 2201.54 260.454 2218.65 247.874C2236.26 234.79 2258.91 228.249 2286.58 228.249C2313.25 228.249 2334.39 234.036 2349.99 245.609C2366.09 257.183 2377.66 272.531 2384.71 291.652C2391.75 310.774 2395.28 332.16 2395.28 355.811V380.719H2313.76V365.623C2313.76 340.463 2309.48 322.851 2300.93 312.787C2292.37 302.723 2276.27 297.691 2252.62 297.691C2227.96 297.691 2210.35 302.974 2199.78 313.542C2189.72 323.606 2184.69 341.218 2184.69 366.378Z" fill="#1F1F1F"/>
<path d="M2603.54 222.096L2409.12 416.515L2603.54 610.934L2797.96 416.515L2603.54 222.096ZM2556.68 463.381C2524.48 431.183 2524.48 401.848 2556.68 369.649C2588.87 337.449 2618.21 337.451 2650.41 369.649C2682.61 401.847 2682.61 431.181 2650.41 463.381C2618.21 495.58 2588.88 495.58 2556.68 463.381Z" fill="#488FF9"/>
<path d="M2995.05 610.934C2953.79 610.934 2922.09 602.128 2899.95 584.516C2878.31 566.904 2867.49 537.215 2867.49 495.449V244.1L2886.36 142.956H2949.01V491.675C2949.01 511.3 2953.79 523.88 2963.35 529.415C2973.42 534.447 2991.28 536.963 3016.94 536.963H3062.23V604.141C3054.68 606.154 3044.87 607.915 3032.79 609.424C3020.72 610.431 3008.14 610.934 2995.05 610.934ZM3062.23 303.729H2804.84V235.797H3062.23V303.729Z" fill="#1F1F1F"/>
<path fill-rule="evenodd" clip-rule="evenodd" d="M3261.14 239.251C3309.67 239.251 3356.22 258.522 3390.53 292.84C3424.84 327.154 3444.12 373.699 3444.12 422.226V422.244C3444.12 470.771 3424.85 517.316 3390.53 551.63C3356.22 585.944 3309.67 605.22 3261.14 605.22H3261.13C3212.6 605.22 3166.05 585.944 3131.74 551.63C3097.43 517.312 3078.15 470.768 3078.15 422.241V422.222C3078.15 373.695 3097.43 327.151 3131.74 292.837C3166.06 258.522 3212.6 239.251 3261.13 239.251H3261.15H3261.14Z" fill="#B199FC"/>
<path d="M3657.02 619.237C3617.77 619.237 3584.56 610.934 3557.39 594.328C3530.21 577.723 3509.33 554.827 3494.74 525.641C3480.65 496.456 3473.6 462.489 3473.6 423.743C3473.6 384.996 3480.9 351.03 3495.49 321.844C3510.59 292.155 3531.97 269.26 3559.65 253.157C3587.33 236.552 3620.79 228.249 3660.04 228.249C3693.25 228.249 3722.44 234.539 3747.6 247.119C3772.76 259.699 3792.13 277.311 3805.72 299.955C3819.8 322.599 3826.85 349.017 3826.85 379.209V386.003H3746.09V381.474C3746.09 353.798 3738.54 333.67 3723.44 321.09C3708.85 308.006 3685.95 301.465 3654.75 301.465C3618.52 301.465 3592.61 311.78 3577.01 332.412C3561.91 352.54 3554.37 382.732 3554.37 422.988C3554.37 463.747 3561.91 494.443 3577.01 515.074C3592.61 535.202 3618.52 545.266 3654.75 545.266C3685.95 545.266 3708.85 538.976 3723.44 526.396C3738.54 513.313 3746.09 493.185 3746.09 466.012V461.483H3826.85V468.276C3826.85 497.462 3819.8 523.629 3805.72 546.776C3791.63 569.42 3771.75 587.284 3746.09 600.367C3720.93 612.947 3691.24 619.237 3657.02 619.237Z" fill="#1F1F1F"/>
<path d="M4046.82 222.096L3852.4 416.515L4046.82 610.934L4241.24 416.515L4046.82 222.096ZM3999.95 463.381C3967.75 431.183 3967.75 401.848 3999.95 369.649C4032.15 337.449 4061.48 337.451 4093.68 369.649C4125.88 401.847 4125.88 431.181 4093.68 463.381C4061.49 495.58 4032.15 495.58 3999.95 463.381Z" fill="#21C38B"/>
<path d="M4362.76 597.21H4281.24V91.4922H4362.76V597.21Z" fill="#1F1F1F"/>
<path d="M471.612 610.934H396.132V536.963L393.867 516.584V372.416C393.867 344.237 387.074 325.115 373.488 315.051C360.405 304.987 339.018 299.955 309.329 299.955C279.641 299.955 258.254 305.239 245.171 315.806C232.591 326.373 226.301 343.985 226.301 368.642V379.964H147.802V372.416C147.802 344.237 154.595 319.328 168.181 297.691C182.271 276.053 201.644 259.196 226.301 247.119C251.461 234.539 280.647 228.249 313.858 228.249C349.082 228.249 378.268 234.79 401.415 247.874C424.563 260.957 441.923 279.072 453.497 302.22C465.574 324.864 471.612 351.785 471.612 382.983V610.934ZM256.493 618.482C222.779 618.482 194.348 609.928 171.201 592.819C148.556 575.207 137.234 550.298 137.234 518.093C137.234 496.959 142.015 479.347 151.576 465.257C161.64 451.167 175.981 439.594 194.599 430.536C213.218 421.478 235.862 415.188 262.532 411.666L401.415 392.041V449.406L274.609 468.276C252.971 471.295 237.875 475.824 229.32 481.863C220.766 487.901 216.489 497.965 216.489 512.055C216.489 526.648 221.521 537.215 231.585 543.757C242.152 550.298 259.261 553.569 282.911 553.569C301.027 553.569 318.387 550.801 334.993 545.266C352.102 539.228 366.191 529.415 377.262 515.829C388.332 501.739 393.867 482.114 393.867 456.954L404.435 552.814L392.358 552.059C385.313 563.633 375.501 574.452 362.921 584.516C350.844 594.58 335.999 602.883 318.387 609.424C300.775 615.463 280.144 618.482 256.493 618.482Z" stroke="#CDCDCD" stroke-width="2.28728" mask="url(#path-1-outside-1_546_3215)"/>
<path d="M595.712 188.244H514.949L514.194 105.216H595.712V188.244ZM596.467 610.934H514.949V233.532H596.467V610.934Z" stroke="#CDCDCD" stroke-width="2.28728" mask="url(#path-1-outside-1_546_3215)"/>
<path fill-rule="evenodd" clip-rule="evenodd" d="M820.613 239.251C869.14 239.251 915.685 258.522 949.999 292.84C984.313 327.154 1003.59 373.699 1003.59 422.226V422.244C1003.59 470.771 984.317 517.316 949.999 551.63C915.685 585.944 869.14 605.22 820.613 605.22H820.595C772.068 605.22 725.523 585.944 691.209 551.63C656.895 517.312 637.623 470.768 637.623 422.241V422.223C637.623 373.696 656.895 327.151 691.213 292.837C725.527 258.522 772.072 239.251 820.599 239.251H820.617H820.613Z" stroke="#CDCDCD" stroke-width="2.28728" mask="url(#path-1-outside-1_546_3215)"/>
<path d="M1399.96 610.934H1318.44V392.796C1318.44 359.585 1312.15 335.682 1299.57 321.09C1286.99 305.994 1263.34 298.446 1228.62 298.446C1206.48 298.446 1188.36 301.716 1174.27 308.258C1160.18 314.296 1149.61 324.36 1142.57 338.45C1135.52 352.037 1132 370.655 1132 394.306H1117.66L1110.87 305.994H1128.98C1134.52 292.407 1142.82 279.827 1153.89 268.253C1164.96 256.68 1179.05 247.119 1196.16 239.571C1213.77 232.023 1234.65 228.249 1258.81 228.249C1291.52 228.249 1318.19 234.539 1338.82 247.119C1359.45 259.699 1374.8 277.059 1384.86 299.2C1394.92 321.341 1399.96 346.753 1399.96 375.435V610.934ZM1132 610.934H1050.48V235.797H1125.21V348.263L1132 352.037V610.934Z" stroke="#CDCDCD" stroke-width="2.28728" mask="url(#path-1-outside-1_546_3215)"/>
<path d="M1687.09 669.809H1415.36V610.934H1687.09V669.809Z" stroke="#CDCDCD" stroke-width="2.28728" mask="url(#path-1-outside-1_546_3215)"/>
<path d="M1909.67 618.482C1875.95 618.482 1848.53 611.94 1827.39 598.857C1806.76 585.271 1792.42 569.923 1784.37 552.814H1763.99L1767.76 456.954H1782.1C1782.1 477.586 1785.88 494.694 1793.43 508.281C1801.48 521.867 1813.3 532.183 1828.9 539.228C1844.5 545.769 1863.12 549.04 1884.76 549.04C1902.37 549.04 1917.72 546.776 1930.8 542.247C1943.88 537.718 1954.45 530.673 1962.5 521.112C1971.06 511.552 1977.1 498.72 1980.62 482.618C1984.64 466.012 1986.66 446.135 1986.66 422.988C1986.66 399.841 1984.64 380.467 1980.62 364.868C1977.1 348.766 1971.06 335.682 1962.5 325.618C1954.45 315.554 1943.88 308.51 1930.8 304.484C1918.22 299.955 1902.87 297.691 1884.76 297.691C1863.12 297.691 1844.5 301.213 1828.9 308.258C1813.3 314.8 1801.48 324.864 1793.43 338.45C1785.88 351.533 1782.1 368.642 1782.1 389.777H1767.76L1763.99 297.691H1779.09C1788.14 276.053 1802.99 259.196 1823.62 247.119C1844.75 234.539 1871.67 228.249 1904.38 228.249C1957.22 228.249 1997.73 245.861 2025.91 281.085C2054.09 316.309 2068.18 363.61 2068.18 422.988C2068.18 482.366 2054.59 529.919 2027.42 565.646C2000.24 600.87 1960.99 618.482 1909.67 618.482ZM1782.1 741.515H1701.34V235.797H1775.31V324.864L1782.1 334.676V741.515Z" stroke="#CDCDCD" stroke-width="2.28728" mask="url(#path-1-outside-1_546_3215)"/>
<path d="M2184.69 610.934H2103.17V233.532H2177.89V338.45L2184.69 342.224V610.934ZM2184.69 366.378H2165.82V293.162H2181.67C2189.22 275.55 2201.54 260.454 2218.65 247.874C2236.26 234.79 2258.91 228.249 2286.58 228.249C2313.25 228.249 2334.39 234.036 2349.99 245.609C2366.09 257.183 2377.66 272.531 2384.71 291.652C2391.75 310.774 2395.28 332.16 2395.28 355.811V380.719H2313.76V365.623C2313.76 340.463 2309.48 322.851 2300.93 312.787C2292.37 302.723 2276.27 297.691 2252.62 297.691C2227.96 297.691 2210.35 302.974 2199.78 313.542C2189.72 323.606 2184.69 341.218 2184.69 366.378Z" stroke="#CDCDCD" stroke-width="2.28728" mask="url(#path-1-outside-1_546_3215)"/>
<path d="M2603.54 222.096L2409.12 416.515L2603.54 610.934L2797.96 416.515L2603.54 222.096ZM2556.68 463.381C2524.48 431.183 2524.48 401.848 2556.68 369.649C2588.87 337.449 2618.21 337.451 2650.41 369.649C2682.61 401.847 2682.61 431.181 2650.41 463.381C2618.21 495.58 2588.88 495.58 2556.68 463.381Z" stroke="#CDCDCD" stroke-width="2.28728" mask="url(#path-1-outside-1_546_3215)"/>
<path d="M2995.05 610.934C2953.79 610.934 2922.09 602.128 2899.95 584.516C2878.31 566.904 2867.49 537.215 2867.49 495.449V244.1L2886.36 142.956H2949.01V491.675C2949.01 511.3 2953.79 523.88 2963.35 529.415C2973.42 534.447 2991.28 536.963 3016.94 536.963H3062.23V604.141C3054.68 606.154 3044.87 607.915 3032.79 609.424C3020.72 610.431 3008.14 610.934 2995.05 610.934ZM3062.23 303.729H2804.84V235.797H3062.23V303.729Z" stroke="#CDCDCD" stroke-width="2.28728" mask="url(#path-1-outside-1_546_3215)"/>
<path fill-rule="evenodd" clip-rule="evenodd" d="M3261.14 239.251C3309.67 239.251 3356.22 258.522 3390.53 292.84C3424.84 327.154 3444.12 373.699 3444.12 422.226V422.244C3444.12 470.771 3424.85 517.316 3390.53 551.63C3356.22 585.944 3309.67 605.22 3261.14 605.22H3261.13C3212.6 605.22 3166.05 585.944 3131.74 551.63C3097.43 517.312 3078.15 470.768 3078.15 422.241V422.222C3078.15 373.695 3097.43 327.151 3131.74 292.837C3166.06 258.522 3212.6 239.251 3261.13 239.251H3261.15H3261.14Z" stroke="#CDCDCD" stroke-width="2.28728" mask="url(#path-1-outside-1_546_3215)"/>
<path d="M3657.02 619.237C3617.77 619.237 3584.56 610.934 3557.39 594.328C3530.21 577.723 3509.33 554.827 3494.74 525.641C3480.65 496.456 3473.6 462.489 3473.6 423.743C3473.6 384.996 3480.9 351.03 3495.49 321.844C3510.59 292.155 3531.97 269.26 3559.65 253.157C3587.33 236.552 3620.79 228.249 3660.04 228.249C3693.25 228.249 3722.44 234.539 3747.6 247.119C3772.76 259.699 3792.13 277.311 3805.72 299.955C3819.8 322.599 3826.85 349.017 3826.85 379.209V386.003H3746.09V381.474C3746.09 353.798 3738.54 333.67 3723.44 321.09C3708.85 308.006 3685.95 301.465 3654.75 301.465C3618.52 301.465 3592.61 311.78 3577.01 332.412C3561.91 352.54 3554.37 382.732 3554.37 422.988C3554.37 463.747 3561.91 494.443 3577.01 515.074C3592.61 535.202 3618.52 545.266 3654.75 545.266C3685.95 545.266 3708.85 538.976 3723.44 526.396C3738.54 513.313 3746.09 493.185 3746.09 466.012V461.483H3826.85V468.276C3826.85 497.462 3819.8 523.629 3805.72 546.776C3791.63 569.42 3771.75 587.284 3746.09 600.367C3720.93 612.947 3691.24 619.237 3657.02 619.237Z" stroke="#CDCDCD" stroke-width="2.28728" mask="url(#path-1-outside-1_546_3215)"/>
<path d="M4046.82 222.096L3852.4 416.515L4046.82 610.934L4241.24 416.515L4046.82 222.096ZM3999.95 463.381C3967.75 431.183 3967.75 401.848 3999.95 369.649C4032.15 337.449 4061.48 337.451 4093.68 369.649C4125.88 401.847 4125.88 431.181 4093.68 463.381C4061.49 495.58 4032.15 495.58 3999.95 463.381Z" stroke="#CDCDCD" stroke-width="2.28728" mask="url(#path-1-outside-1_546_3215)"/>
<path d="M4362.76 597.21H4281.24V91.4922H4362.76V597.21Z" stroke="#CDCDCD" stroke-width="2.28728" mask="url(#path-1-outside-1_546_3215)"/>
</svg>
